HIERARCHY
ROOT Hips
{
	OFFSET -0.001795 -0.223333 0.028219
	CHANNELS 6 Xposition Yposition Zposition Zrotation Yrotation Xrotation 
	JOINT LeftUpLeg
	{
		OFFSET 0.069520 -0.091406 -0.006815
		CHANNELS 3 Zrotation Yrotation Xrotation
		JOINT LeftLeg
		{
			OFFSET 0.034277 -0.375199 -0.004496
			CHANNELS 3 Zrotation Yrotation Xrotation
			JOINT LeftFoot
			{
				OFFSET -0.013596 -0.397961 -0.043693
				CHANNELS 3 Zrotation Yrotation Xrotation
				JOINT LeftToe
				{
					OFFSET 0.026358 -0.055791 0.119288
					CHANNELS 3 Zrotation Yrotation Xrotation
					End Site
					{
						OFFSET 0.000000 0.000000 0.000000
					}
				}
			}
		}
	}
	JOINT RightUpLeg
	{
		OFFSET -0.067670 -0.090522 -0.004320
		CHANNELS 3 Zrotation Yrotation Xrotation
		JOINT RightLeg
		{
			OFFSET -0.038290 -0.382569 -0.008850
			CHANNELS 3 Zrotation Yrotation Xrotation
			JOINT RightFoot
			{
				OFFSET 0.015774 -0.398415 -0.042312
				CHANNELS 3 Zrotation Yrotation Xrotation
				JOINT RightToe
				{
					OFFSET -0.025372 -0.048144 0.123348
					CHANNELS 3 Zrotation Yrotation Xrotation
					End Site
					{
						OFFSET 0.000000 0.000000 0.000000
					}
				}
			}
		}
	}
	JOINT Spine
	{
		OFFSET -0.002533 0.108963 -0.026696
		CHANNELS 3 Zrotation Yrotation Xrotation
		JOINT Spine1
		{
			OFFSET 0.005487 0.135180 0.001092
			CHANNELS 3 Zrotation Yrotation Xrotation
			JOINT Spine2
			{
				OFFSET 0.001457 0.052922 0.025425
				CHANNELS 3 Zrotation Yrotation Xrotation
				JOINT Neck
				{
					OFFSET -0.002778 0.213870 -0.042857
					CHANNELS 3 Zrotation Yrotation Xrotation
					JOINT Head
					{
						OFFSET 0.005152 0.064970 0.051349
						CHANNELS 3 Zrotation Yrotation Xrotation
						End Site
						{
							OFFSET 0.000000 0.000000 0.000000
						}
					}
				}
				JOINT LeftShoulder
				{
					OFFSET 0.078845 0.121749 -0.034090
					CHANNELS 3 Zrotation Yrotation Xrotation
					JOINT LeftArm
					{
						OFFSET 0.090977 0.030469 -0.008868
						CHANNELS 3 Zrotation Yrotation Xrotation
						JOINT LeftForeArm
						{
							OFFSET 0.259612 -0.012772 -0.027456
							CHANNELS 3 Zrotation Yrotation Xrotation
							JOINT LeftHand
							{
								OFFSET 0.249234 0.008986 -0.001171
								CHANNELS 3 Zrotation Yrotation Xrotation
								End Site
								{
									OFFSET 0.000000 0.000000 0.000000
								}
							}
						}
					}
				}
				JOINT RightShoulder
				{
					OFFSET -0.081759 0.118833 -0.038615
					CHANNELS 3 Zrotation Yrotation Xrotation
					JOINT RightArm
					{
						OFFSET -0.096012 0.032551 -0.009143
						CHANNELS 3 Zrotation Yrotation Xrotation
						JOINT RightForeArm
						{
							OFFSET -0.253742 -0.013329 -0.021401
							CHANNELS 3 Zrotation Yrotation Xrotation
							JOINT RightHand
							{
								OFFSET -0.255298 0.007772 -0.005559
								CHANNELS 3 Zrotation Yrotation Xrotation
								End Site
								{
									OFFSET 0.000000 0.000000 0.000000
								}
							}
						}
					}
				}
			}
		}
	}
}
MOTION
Frames: 9
Frame Time: 0.050000
0.000000 0.949271 0.000000 -1.348476 -6.396834 1.827976 2.485465 0.257757 3.533179 -0.696327 0.256053 -5.896350 3.344170 9.029136 9.648913 0.000000 0.000000 0.000000 -1.681758 0.007989 0.730083 2.546844 -0.308302 -5.116457 0.365442 -4.504270 10.406365 0.000000 0.000000 0.000000 6.239718 -0.295621 2.325338 -5.246404 1.774233 -23.678139 -0.875502 8.042935 28.420969 10.069083 -4.364648 -21.933722 0.000000 0.000000 0.000000 -8.881509 -2.014961 0.044661 -51.418401 -0.425147 -8.284630 -9.381507 -32.841694 4.207874 0.000000 0.000000 0.000000 16.847063 -9.243478 -5.025437 56.247154 -0.721869 -8.245379 12.367325 33.260910 5.686640 0.000000 0.000000 0.000000 
-0.000082 0.948589 0.000607 -1.561560 -7.229200 2.243113 2.669448 0.308476 4.204840 -0.865221 0.312332 -7.184119 3.884158 9.752779 8.638460 0.000000 0.000000 0.000000 -1.743656 0.041251 0.402282 2.527705 -0.300286 -5.118950 0.816719 -3.927635 10.872496 0.000000 0.000000 0.000000 6.365531 -0.317344 2.448984 -5.543075 1.822584 -24.267164 -0.703455 8.287919 27.994513 10.530571 -4.700893 -21.837164 0.000000 0.000000 0.000000 -8.294836 -1.560986 -0.076174 -52.336785 -0.599487 -8.321130 -8.875033 -32.719766 4.084357 0.000000 0.000000 0.000000 16.399756 -9.400278 -5.132370 57.553811 -3.147442 -9.438516 13.350455 34.817467 6.286020 0.000000 0.000000 0.000000 
-0.000123 0.948068 0.000951 -1.149691 -6.994955 2.260029 2.625475 0.287179 3.939097 -1.511510 0.329360 -6.403819 3.645518 9.304977 8.363589 0.000000 0.000000 0.000000 -1.882821 0.028436 0.649234 1.976620 -0.283030 -5.414931 1.108591 -3.187359 10.545377 0.000000 0.000000 0.000000 6.372149 -0.285355 2.099588 -5.756696 1.869968 -24.902691 -0.615624 8.198111 28.713665 9.839446 -4.206902 -22.148039 0.000000 0.000000 0.000000 -8.458359 -1.990375 0.104343 -52.132073 -0.061562 -8.570513 -9.525785 -33.208784 4.348682 0.000000 0.000000 0.000000 16.281501 -9.697256 -5.257607 57.891807 -3.356543 -9.640805 13.355064 33.996761 6.137284 0.000000 0.000000 0.000000 
-0.000261 0.947728 0.001249 -1.256346 -7.072881 2.212738 2.863806 0.314408 4.389235 -1.409601 0.330421 -6.676287 3.655586 9.336301 8.469422 0.000000 0.000000 0.000000 -1.889340 0.001838 1.000882 2.500418 -0.309882 -6.020979 1.006710 -3.610049 11.035030 0.000000 0.000000 0.000000 6.284533 -0.278962 2.071656 -5.716058 1.855349 -25.350493 -0.522911 8.278130 29.172037 9.669927 -4.195293 -21.622194 0.000000 0.000000 0.000000 -8.105005 -1.717078 0.017141 -52.599099 -0.037576 -8.697017 -9.301433 -33.962054 4.408218 0.000000 0.000000 0.000000 16.142267 -9.895796 -5.330916 58.042413 -3.985193 -9.992248 13.784336 33.467137 6.168592 0.000000 0.000000 0.000000 
-0.000451 0.947429 0.001548 -1.202262 -7.027384 2.020817 2.637841 0.325952 4.408294 -0.999225 0.294259 -6.379907 3.509955 8.995800 7.940710 0.000000 0.000000 0.000000 -1.869444 -0.014262 1.186304 2.305145 -0.304678 -6.107797 0.883279 -3.717309 10.746206 0.000000 0.000000 0.000000 6.006213 -0.275033 2.146961 -5.197726 1.738296 -25.130773 -0.568509 8.427164 28.722160 9.109039 -3.887001 -20.981772 0.000000 0.000000 0.000000 -7.826862 -1.734662 0.017576 -52.796750 -0.133121 -8.655498 -9.638787 -34.476099 4.565354 0.000000 0.000000 0.000000 15.414616 -10.002873 -5.272836 58.447845 -4.347420 -10.139063 13.778562 33.095744 6.095287 0.000000 0.000000 0.000000 
-0.000641 0.947386 0.001873 -1.292530 -6.890292 2.053992 2.729889 0.326779 4.488411 -0.898020 0.287718 -6.404100 3.519791 9.018106 7.911544 0.000000 0.000000 0.000000 -1.795640 -0.029741 1.326435 2.321891 -0.308126 -6.240274 0.892856 -3.695878 10.782046 0.000000 0.000000 0.000000 5.806328 -0.266576 2.102356 -5.054967 1.704778 -25.319086 -0.354917 8.206613 29.002429 8.788734 -3.705439 -20.969457 0.000000 0.000000 0.000000 -7.647033 -1.352844 -0.112904 -52.534867 -0.451208 -8.497955 -9.327600 -34.967215 4.556384 0.000000 0.000000 0.000000 14.934640 -9.934184 -5.198707 58.458570 -4.691371 -10.308437 13.514576 32.800641 5.934740 0.000000 0.000000 0.000000 
-0.000868 0.947346 0.002244 -1.297586 -6.927883 1.962123 2.646541 0.331331 4.489854 -0.677210 0.266791 -6.218887 3.527126 9.013724 7.819307 0.000000 0.000000 0.000000 -1.726178 -0.049218 1.526889 2.261531 -0.306200 -6.266752 0.907950 -3.609945 10.643552 0.000000 0.000000 0.000000 5.589873 -0.265528 2.175684 -4.895916 1.669084 -25.114708 -0.364911 8.305281 28.750783 8.962632 -3.784519 -21.047483 0.000000 0.000000 0.000000 -7.544602 -1.238081 -0.166190 -52.287155 -0.618112 -8.367034 -8.917847 -35.931499 4.546817 0.000000 0.000000 0.000000 14.825727 -9.947569 -5.184034 58.478745 -5.004132 -10.420281 13.320306 32.602268 5.832107 0.000000 0.000000 0.000000 
-0.001128 0.947324 0.002714 -1.252628 -6.824207 1.897461 2.628675 0.343043 4.635356 -0.728248 0.269975 -6.216931 3.514511 8.989196 7.758679 0.000000 0.000000 0.000000 -1.687228 -0.067591 1.726941 2.114711 -0.302821 -6.312372 0.896563 -3.596889 10.592271 0.000000 0.000000 0.000000 5.392789 -0.261547 2.203914 -4.761220 1.638047 -25.222568 -0.365915 8.354081 28.980506 9.120959 -3.883251 -21.018568 0.000000 0.000000 0.000000 -7.621006 -1.125794 -0.229523 -51.612933 -0.760941 -8.221857 -8.506898 -37.230017 4.570646 0.000000 0.000000 0.000000 14.968376 -10.077450 -5.245111 58.179367 -5.187576 -10.480409 13.232629 32.575578 5.812585 0.000000 0.000000 0.000000 
-0.001392 0.947245 0.003258 -1.285001 -6.950913 1.910420 2.645040 0.349371 4.708193 -0.651994 0.265041 -6.216061 3.567567 9.086050 7.814684 0.000000 0.000000 0.000000 -1.704210 -0.071624 1.800340 2.159347 -0.305574 -6.494494 1.056530 -3.358736 10.723817 0.000000 0.000000 0.000000 5.295757 -0.249723 2.098402 -4.793029 1.644569 -25.082490 -0.287369 8.385602 28.878358 9.114195 -3.893025 -20.950649 0.000000 0.000000 0.000000 -7.565777 -0.908461 -0.313737 -51.160285 -0.858083 -8.096579 -8.045838 -38.307801 4.554931 0.000000 0.000000 0.000000 14.831189 -10.115504 -5.261434 57.938697 -5.603969 -10.614410 13.380924 32.625349 5.848315 0.000000 0.000000 0.000000 
